<svg xmlns="http://www.w3.org/2000/svg" viewBox="0 0 500 170" fill="none">
  <!-- Ticket Text -->
  <text x="5" y="115" font-family="-apple-system, BlinkMacSystemFont, 'Segoe UI', Roboto, 'Helvetica Neue', Arial, sans-serif" font-weight="900" font-size="105" fill="#252035" letter-spacing="-2">Ticket</text>
  
  <!-- Stylized dot/accent on 'i' matching logo curve -->
  <path d="M78 28 C78 18, 92 12, 98 12 C98 22, 85 28, 78 28 Z" fill="#252035" />

  <!-- Subtitle: Content—Automation—Display -->
  <text x="22" y="152" font-family="-apple-system, BlinkMacSystemFont, 'Segoe UI', Roboto, 'Helvetica Neue', Arial, sans-serif" font-weight="700" font-size="20" fill="#585F70" letter-spacing="0.5">Content—Automation—Display</text>

  <!-- Pink Speech Bubble for IT -->
  <g transform="translate(345, 0)">
    <!-- Speech bubble background -->
    <path d="M70 5 C115 5 150 35 150 78 C150 120 115 152 70 152 C52 152 35 146 22 136 C10 148 2 158 0 160 C5 148 9 135 9 122 C3 110 0 95 0 78 C0 35 35 5 70 5 Z" fill="#FA2A7B" />
    
    <!-- White 'I' -->
    <rect x="34" y="38" width="18" height="78" rx="2" fill="#FFFFFF" />
    
    <!-- White 'T' -->
    <path d="M68 38 h56 v18 h-18 v60 h-20 v-60 h-18 Z" fill="#FFFFFF" />
  </g>
</svg>
